<svg xmlns="http://www.w3.org/2000/svg" xmlns:xlink="http://www.w3.org/1999/xlink" width="1024" zoomAndPan="magnify" viewBox="0 0 768 576" height="768" preserveAspectRatio="xMidYMid meet" version="1.2"><defs><clipPath id="711d648257"><path d="M 304 172.800781 L 462 172.800781 L 462 373 L 304 373 Z M 304 172.800781 "/></clipPath><clipPath id="152249ac1a"><path d="M 319 192 L 465.707031 192 L 465.707031 403 L 319 403 Z M 319 192 "/></clipPath><clipPath id="84a236ba99"><path d="M 251 313 L 426 313 L 426 421 L 251 421 Z M 251 313 "/></clipPath><clipPath id="63f4c18ef1"><path d="M 248.398438 371.761719 L 341.519531 270.933594 L 465.488281 385.429688 L 372.367188 486.253906 Z M 248.398438 371.761719 "/></clipPath><clipPath id="f79a41d8df"><path d="M 248.398438 371.761719 L 341.519531 270.933594 L 465.488281 385.429688 L 372.367188 486.253906 Z M 248.398438 371.761719 "/></clipPath><clipPath id="70bffb20ea"><path d="M 248.398438 371.761719 L 341.519531 270.933594 L 465.488281 385.429688 L 372.367188 486.253906 Z M 248.398438 371.761719 "/></clipPath><clipPath id="19a21f0089"><path d="M 248.425781 371.734375 L 341.496094 270.960938 L 443.738281 365.386719 L 350.667969 466.160156 Z M 248.425781 371.734375 "/></clipPath><clipPath id="dbe8fcd6fb"><path d="M 314 334 L 454 334 L 454 402 L 314 402 Z M 314 334 "/></clipPath><clipPath id="4cdb1482f2"><path d="M 248.398438 371.761719 L 341.519531 270.933594 L 465.488281 385.429688 L 372.367188 486.253906 Z M 248.398438 371.761719 "/></clipPath><clipPath id="7772fd3b81"><path d="M 248.398438 371.761719 L 341.519531 270.933594 L 465.488281 385.429688 L 372.367188 486.253906 Z M 248.398438 371.761719 "/></clipPath><clipPath id="d2bd1c0553"><path d="M 248.398438 371.761719 L 341.519531 270.933594 L 465.488281 385.429688 L 372.367188 486.253906 Z M 248.398438 371.761719 "/></clipPath><clipPath id="858db0510d"><path d="M 304.402344 359.9375 L 354.78125 305.386719 L 454.425781 397.417969 L 404.046875 451.964844 Z M 304.402344 359.9375 "/></clipPath></defs><g id="a36d664c2f"><g clip-rule="nonzero" clip-path="url(#711d648257)"><path style=" stroke:none;fill-rule:nonzero;fill:#80cc28;fill-opacity:1;" d="M 440.789062 282.4375 C 446.203125 285.023438 450.585938 266.144531 450.585938 266.144531 C 450.585938 266.144531 457.859375 281.113281 457.226562 286.167969 C 455.429688 300.644531 449.597656 305.945312 449.949219 307.726562 C 458.125 303.980469 460.726562 294.746094 460.980469 296.765625 C 465.699219 334.15625 445.808594 365.582031 445.808594 365.582031 C 445.808594 365.582031 401.972656 391.371094 350.25 345.515625 C 371.742188 353.9375 381.105469 347.433594 381.105469 347.433594 C 381.105469 347.433594 358.296875 345.8125 346.730469 338.125 C 337.453125 331.957031 332.523438 323.789062 328.652344 318.308594 C 339.644531 326.175781 349.78125 324.003906 349.78125 324.003906 C 349.78125 324.003906 320.492188 311.136719 315.433594 293.480469 C 321.894531 298.664062 334.050781 298.660156 334.050781 298.660156 C 334.050781 298.660156 312.511719 287.714844 306.027344 266.824219 C 315.796875 274.234375 325.835938 273.367188 325.835938 273.367188 C 325.835938 273.367188 307.046875 265.472656 304.28125 247.6875 C 302.179688 203.785156 321.410156 172.78125 321.410156 172.78125 C 321.410156 172.78125 324.546875 194.570312 351.25 204.96875 C 364.226562 210.023438 382.714844 209.171875 387.921875 214.800781 C 393.125 220.433594 393.992188 229.710938 390.535156 235.222656 C 401.691406 230.046875 398.625 217.507812 399.398438 217.804688 C 411.628906 226.128906 413.875 241.199219 413.359375 246.207031 C 417.425781 246.703125 418.757812 229.796875 420.457031 231.042969 C 430.136719 239.28125 430.996094 254.9375 428.917969 260.171875 C 431.984375 261.777344 438.558594 247.507812 439.328125 248.699219 C 450.59375 266.136719 439.660156 281.894531 440.789062 282.4375 "/></g><g clip-rule="nonzero" clip-path="url(#152249ac1a)"><path style=" stroke:none;fill-rule:nonzero;fill:#6cad21;fill-opacity:1;" d="M 452.492188 402.996094 C 452.492188 402.996094 452.390625 361.289062 409.179688 306.878906 C 381.132812 271.5625 361.152344 273.027344 336.300781 244.171875 C 315.171875 219.640625 319.757812 192.953125 319.757812 192.953125 C 319.757812 192.953125 317.78125 215.867188 337.679688 239.546875 C 354.730469 259.832031 386.472656 261.058594 413.5 290.378906 C 449.570312 329.519531 465.703125 394.476562 465.703125 394.476562 L 452.492188 402.996094 "/></g><g clip-rule="nonzero" clip-path="url(#84a236ba99)"><g clip-rule="nonzero" clip-path="url(#63f4c18ef1)"><g clip-rule="nonzero" clip-path="url(#f79a41d8df)"><g clip-rule="nonzero" clip-path="url(#70bffb20ea)"><g clip-rule="nonzero" clip-path="url(#19a21f0089)"><path style=" stroke:none;fill-rule:nonzero;fill:#fbbf06;fill-opacity:1;" d="M 384.617188 318.710938 L 390.292969 329.382812 C 390.292969 329.382812 357.28125 306.699219 336.6875 315.484375 L 350.738281 322.925781 C 350.738281 322.925781 329.335938 315.792969 305.144531 332.703125 L 317.1875 335.117188 C 317.1875 335.117188 264.359375 372.015625 251.742188 368.144531 C 251.742188 368.144531 271.648438 390.609375 290.011719 391.347656 L 276.519531 397.679688 C 276.519531 397.679688 308.613281 413.863281 324.75 408.15625 L 316.5625 416.460938 C 316.5625 416.460938 352.855469 423.042969 364.003906 407.363281 L 357.710938 420.824219 C 357.710938 420.824219 413.425781 419.769531 423.539062 378.71875 L 425.921875 380.3125 C 425.921875 380.3125 427.703125 331.566406 384.617188 318.710938 "/></g></g></g></g></g><g clip-rule="nonzero" clip-path="url(#dbe8fcd6fb)"><g clip-rule="nonzero" clip-path="url(#4cdb1482f2)"><g clip-rule="nonzero" clip-path="url(#7772fd3b81)"><g clip-rule="nonzero" clip-path="url(#d2bd1c0553)"><g clip-rule="nonzero" clip-path="url(#858db0510d)"><path style=" stroke:none;fill-rule:nonzero;fill:#f49103;fill-opacity:1;" d="M 438.578125 386.929688 L 430.898438 381.796875 L 427.054688 379.230469 L 426.09375 378.589844 L 425.105469 377.953125 L 424.113281 377.316406 C 423.78125 377.109375 423.441406 376.914062 423.105469 376.710938 C 418.675781 374.046875 414 371.839844 409.1875 370.03125 C 408.589844 368.621094 407.945312 367.273438 407.269531 365.925781 C 406.558594 364.515625 405.8125 363.128906 405.027344 361.761719 C 404.242188 360.398438 403.421875 359.054688 402.558594 357.734375 C 401.699219 356.417969 400.796875 355.125 399.84375 353.871094 C 398.894531 352.617188 397.90625 351.386719 396.851562 350.222656 C 396.59375 349.921875 396.324219 349.636719 396.050781 349.351562 C 395.78125 349.066406 395.519531 348.773438 395.234375 348.5 L 394.394531 347.671875 L 393.527344 346.871094 C 393.242188 346.601562 392.9375 346.355469 392.636719 346.097656 C 392.339844 345.84375 392.042969 345.585938 391.726562 345.351562 C 391.414062 345.113281 391.105469 344.867188 390.792969 344.632812 L 389.828125 343.960938 C 388.519531 343.089844 387.148438 342.320312 385.714844 341.691406 C 387.121094 342.378906 388.453125 343.203125 389.714844 344.121094 L 390.644531 344.828125 C 390.945312 345.074219 391.242188 345.328125 391.539062 345.578125 C 391.84375 345.824219 392.125 346.09375 392.410156 346.355469 C 392.695312 346.621094 392.988281 346.878906 393.257812 347.15625 L 394.082031 347.984375 L 394.878906 348.839844 C 395.148438 349.121094 395.394531 349.421875 395.652344 349.714844 C 395.90625 350.007812 396.160156 350.300781 396.402344 350.605469 C 397.398438 351.800781 398.320312 353.054688 399.207031 354.332031 C 400.097656 355.605469 400.929688 356.917969 401.726562 358.253906 C 402.519531 359.589844 403.277344 360.949219 403.992188 362.328125 C 404.710938 363.703125 405.386719 365.101562 406.027344 366.515625 C 406.445312 367.441406 406.851562 368.382812 407.230469 369.320312 C 406.851562 369.1875 406.46875 369.054688 406.085938 368.925781 C 400.441406 367.027344 394.648438 365.644531 388.804688 364.675781 C 388.261719 363.429688 387.683594 362.222656 387.078125 361.015625 C 386.371094 359.609375 385.625 358.222656 384.839844 356.855469 C 384.054688 355.488281 383.230469 354.144531 382.371094 352.828125 C 381.507812 351.507812 380.609375 350.214844 379.65625 348.964844 C 378.703125 347.710938 377.71875 346.480469 376.660156 345.3125 C 376.402344 345.015625 376.132812 344.730469 375.863281 344.445312 C 375.589844 344.160156 375.328125 343.867188 375.042969 343.59375 L 374.207031 342.761719 L 373.339844 341.964844 C 373.054688 341.695312 372.746094 341.445312 372.449219 341.191406 C 372.148438 340.9375 371.855469 340.679688 371.539062 340.445312 C 371.226562 340.203125 370.917969 339.960938 370.601562 339.726562 L 369.636719 339.050781 C 368.332031 338.183594 366.960938 337.414062 365.523438 336.785156 C 366.933594 337.472656 368.265625 338.296875 369.523438 339.210938 L 370.453125 339.921875 C 370.757812 340.164062 371.050781 340.421875 371.351562 340.671875 C 371.652344 340.914062 371.933594 341.183594 372.222656 341.449219 C 372.507812 341.714844 372.800781 341.96875 373.070312 342.25 L 373.894531 343.078125 L 374.6875 343.933594 C 374.957031 344.210938 375.203125 344.515625 375.460938 344.804688 C 375.714844 345.101562 375.972656 345.390625 376.214844 345.699219 C 377.210938 346.894531 378.132812 348.148438 379.019531 349.421875 C 379.90625 350.699219 380.742188 352.011719 381.535156 353.347656 C 382.332031 354.683594 383.085938 356.042969 383.804688 357.417969 C 384.519531 358.796875 385.199219 360.195312 385.835938 361.609375 C 386.253906 362.53125 386.65625 363.464844 387.035156 364.398438 C 381.421875 363.546875 375.769531 363.0625 370.113281 362.867188 C 369.511719 361.445312 368.863281 360.085938 368.179688 358.726562 C 367.46875 357.316406 366.722656 355.929688 365.941406 354.5625 C 365.15625 353.195312 364.332031 351.855469 363.46875 350.535156 C 362.609375 349.21875 361.710938 347.921875 360.753906 346.671875 C 359.804688 345.417969 358.820312 344.1875 357.761719 343.019531 C 357.503906 342.722656 357.234375 342.4375 356.964844 342.152344 C 356.691406 341.867188 356.429688 341.574219 356.144531 341.300781 L 355.308594 340.472656 L 354.4375 339.671875 C 354.152344 339.402344 353.847656 339.152344 353.550781 338.898438 C 353.25 338.644531 352.953125 338.386719 352.636719 338.152344 C 352.328125 337.914062 352.019531 337.667969 351.703125 337.433594 L 350.738281 336.757812 C 349.429688 335.890625 348.058594 335.121094 346.625 334.492188 C 348.03125 335.179688 349.363281 336.003906 350.625 336.921875 L 351.554688 337.628906 C 351.855469 337.875 352.152344 338.128906 352.449219 338.378906 C 352.753906 338.625 353.035156 338.894531 353.320312 339.15625 C 353.609375 339.421875 353.898438 339.679688 354.171875 339.957031 L 354.996094 340.785156 L 355.789062 341.640625 C 356.058594 341.921875 356.304688 342.222656 356.5625 342.515625 C 356.816406 342.808594 357.074219 343.101562 357.3125 343.40625 C 358.308594 344.601562 359.230469 345.855469 360.117188 347.132812 C 361.007812 348.40625 361.839844 349.71875 362.636719 351.054688 C 363.429688 352.390625 364.1875 353.75 364.90625 355.125 C 365.621094 356.503906 366.300781 357.902344 366.9375 359.316406 C 367.457031 360.472656 367.960938 361.648438 368.417969 362.820312 C 362.613281 362.679688 356.808594 362.839844 351.03125 363.253906 C 350.898438 363.261719 350.769531 363.273438 350.640625 363.28125 C 349.679688 362.152344 348.695312 361.085938 347.683594 360.027344 C 346.589844 358.890625 345.46875 357.785156 344.316406 356.710938 C 343.164062 355.636719 341.980469 354.59375 340.769531 353.589844 C 339.558594 352.582031 338.316406 351.613281 337.035156 350.695312 C 335.757812 349.777344 334.453125 348.894531 333.097656 348.089844 C 332.765625 347.882812 332.421875 347.6875 332.082031 347.496094 C 331.734375 347.304688 331.398438 347.101562 331.046875 346.921875 L 330.003906 346.378906 L 328.9375 345.867188 C 328.585938 345.695312 328.21875 345.546875 327.859375 345.390625 C 327.5 345.238281 327.140625 345.078125 326.769531 344.945312 C 326.402344 344.808594 326.035156 344.667969 325.664062 344.535156 L 324.542969 344.175781 C 323.039062 343.730469 321.5 343.402344 319.949219 343.222656 C 321.492188 343.464844 323.007812 343.859375 324.484375 344.363281 L 325.582031 344.765625 C 325.941406 344.910156 326.296875 345.070312 326.65625 345.21875 C 327.019531 345.363281 327.367188 345.539062 327.71875 345.703125 C 328.070312 345.875 328.425781 346.035156 328.765625 346.222656 L 329.796875 346.769531 L 330.808594 347.351562 C 331.148438 347.539062 331.472656 347.757812 331.804688 347.960938 C 332.132812 348.164062 332.464844 348.367188 332.785156 348.589844 C 334.089844 349.4375 335.339844 350.363281 336.5625 351.324219 C 337.789062 352.28125 338.972656 353.289062 340.125 354.332031 C 341.28125 355.371094 342.402344 356.449219 343.492188 357.554688 C 344.585938 358.660156 345.644531 359.796875 346.671875 360.960938 C 347.386719 361.765625 348.089844 362.59375 348.765625 363.425781 C 343.378906 363.867188 338.015625 364.523438 332.683594 365.375 C 329.648438 365.863281 326.621094 366.410156 323.609375 367.027344 C 320.597656 367.652344 317.597656 368.328125 314.632812 369.132812 C 317.617188 368.40625 320.632812 367.8125 323.65625 367.269531 C 326.679688 366.734375 329.714844 366.265625 332.757812 365.863281 C 338.84375 365.054688 344.960938 364.503906 351.089844 364.234375 C 353.285156 364.136719 355.484375 364.078125 357.679688 364.054688 C 357.1875 365.019531 356.675781 365.984375 356.152344 366.941406 C 355.492188 368.144531 354.8125 369.34375 354.109375 370.527344 C 352.710938 372.894531 351.230469 375.21875 349.640625 377.464844 C 348.050781 379.707031 346.351562 381.882812 344.441406 383.863281 C 343.480469 384.84375 342.472656 385.785156 341.367188 386.605469 C 340.265625 387.425781 339.066406 388.140625 337.742188 388.546875 C 339.085938 388.210938 340.335938 387.546875 341.488281 386.777344 C 342.648438 386.003906 343.714844 385.105469 344.734375 384.160156 C 346.765625 382.257812 348.589844 380.148438 350.3125 377.96875 C 352.03125 375.78125 353.640625 373.511719 355.175781 371.195312 C 355.941406 370.035156 356.691406 368.863281 357.417969 367.679688 C 358.148438 366.492188 358.859375 365.304688 359.546875 364.074219 L 359.496094 364.046875 C 362.820312 364.042969 366.144531 364.128906 369.460938 364.320312 C 373.054688 364.527344 376.640625 364.855469 380.207031 365.316406 C 379.804688 366.089844 379.390625 366.859375 378.972656 367.625 C 378.3125 368.832031 377.632812 370.027344 376.933594 371.210938 C 375.53125 373.578125 374.050781 375.90625 372.464844 378.152344 C 370.871094 380.394531 369.171875 382.566406 367.261719 384.546875 C 366.304688 385.53125 365.292969 386.46875 364.191406 387.292969 C 363.085938 388.109375 361.890625 388.828125 360.5625 389.234375 C 361.910156 388.894531 363.15625 388.230469 364.3125 387.464844 C 365.46875 386.691406 366.535156 385.792969 367.554688 384.847656 C 369.589844 382.945312 371.414062 380.835938 373.132812 378.652344 C 374.851562 376.464844 376.460938 374.195312 377.996094 371.878906 C 378.765625 370.71875 379.511719 369.546875 380.242188 368.363281 C 380.8125 367.433594 381.371094 366.5 381.921875 365.546875 C 383.839844 365.820312 385.757812 366.128906 387.660156 366.484375 C 390.660156 367.042969 393.640625 367.710938 396.582031 368.503906 C 396.535156 368.648438 396.488281 368.792969 396.4375 368.9375 C 396.324219 369.277344 396.203125 369.617188 396.074219 369.953125 C 395.820312 370.628906 395.550781 371.300781 395.257812 371.964844 C 394.683594 373.296875 394.039062 374.597656 393.335938 375.871094 C 391.941406 378.425781 390.296875 380.84375 388.449219 383.105469 C 387.519531 384.230469 386.53125 385.304688 385.5 386.34375 C 384.972656 386.847656 384.457031 387.367188 383.902344 387.84375 C 383.625 388.085938 383.363281 388.339844 383.078125 388.570312 L 382.230469 389.269531 C 379.949219 391.109375 377.453125 392.691406 374.820312 394.015625 C 377.515625 392.820312 380.09375 391.347656 382.484375 389.601562 L 383.375 388.9375 C 383.671875 388.71875 383.953125 388.472656 384.242188 388.242188 C 384.828125 387.785156 385.375 387.285156 385.933594 386.800781 C 387.027344 385.796875 388.082031 384.75 389.082031 383.652344 C 391.070312 381.441406 392.867188 379.050781 394.421875 376.507812 C 395.203125 375.234375 395.929688 373.929688 396.589844 372.582031 C 396.921875 371.914062 397.234375 371.230469 397.53125 370.542969 C 397.679688 370.195312 397.824219 369.847656 397.960938 369.496094 C 398.03125 369.320312 398.097656 369.144531 398.164062 368.964844 C 398.167969 368.957031 398.167969 368.953125 398.171875 368.945312 C 400.570312 369.628906 402.941406 370.394531 405.273438 371.25 C 409.152344 372.671875 412.929688 374.34375 416.550781 376.289062 C 416.507812 376.410156 416.460938 376.542969 416.414062 376.667969 C 416.351562 376.835938 416.285156 377.003906 416.21875 377.167969 C 416.085938 377.503906 415.945312 377.835938 415.800781 378.164062 C 415.511719 378.824219 415.207031 379.484375 414.878906 380.128906 C 414.234375 381.425781 413.519531 382.691406 412.75 383.925781 C 411.21875 386.402344 409.445312 388.726562 407.480469 390.886719 C 406.492188 391.960938 405.449219 392.980469 404.363281 393.960938 C 403.808594 394.4375 403.265625 394.929688 402.6875 395.375 C 402.398438 395.601562 402.121094 395.839844 401.824219 396.054688 L 400.9375 396.707031 C 398.5625 398.421875 395.984375 399.871094 393.285156 401.046875 C 396.039062 400 398.695312 398.667969 401.175781 397.054688 L 402.097656 396.4375 C 402.410156 396.234375 402.703125 396.003906 403.003906 395.792969 C 403.613281 395.367188 404.183594 394.894531 404.769531 394.441406 C 405.917969 393.5 407.027344 392.511719 408.085938 391.464844 C 410.1875 389.367188 412.113281 387.078125 413.800781 384.617188 C 414.648438 383.390625 415.445312 382.125 416.175781 380.820312 C 416.542969 380.167969 416.890625 379.503906 417.222656 378.832031 C 417.390625 378.492188 417.554688 378.152344 417.710938 377.808594 C 417.789062 377.636719 417.867188 377.464844 417.941406 377.289062 C 417.96875 377.226562 417.996094 377.164062 418.019531 377.101562 C 419.21875 377.777344 420.398438 378.484375 421.554688 379.222656 C 421.875 379.425781 422.195312 379.621094 422.511719 379.832031 L 423.445312 380.464844 L 424.378906 381.101562 L 425.320312 381.765625 L 429.085938 384.429688 L 436.613281 389.757812 L 451.664062 400.40625 L 453.949219 397.203125 L 438.578125 386.929688 "/></g></g></g></g></g></g></svg>